<svg width="778" height="606" viewBox="0 0 778 606" fill="none" xmlns="http://www.w3.org/2000/svg">
	<path
		d="M409.734 172.911C435.129 146.099 476.693 142.848 505.948 165.385L672.942 294.032C719.755 330.096 705.589 404.084 648.765 420.304L252.884 533.312C182.448 553.419 130.475 467.747 180.847 414.566L409.734 172.911Z"
		fill="url(#paint0_linear_6_27)" />
	<path
		d="M542.372 532.802C518.888 517.872 535.501 481.767 562.003 490.137C575.584 494.426 589.783 485.898 592.341 471.915L593.285 466.758C599.589 432.303 650.508 437.946 649.559 472.995L647.69 541.985C647.011 567.074 619.323 581.727 598.096 568.232L542.372 532.802Z"
		fill="#2D314D" />
	<path
		d="M145.952 189.605C166.657 125.48 256.23 122.393 281.3 184.94L290.642 208.246C304.726 243.383 289.196 283.425 255.104 299.878L235.124 309.52C178.085 337.047 115.854 282.823 135.314 222.553L145.952 189.605Z"
		fill="#C87030" />
	<defs>
		<linearGradient id="paint0_linear_6_27" x1="233.963" y1="245.405" x2="523.197" y2="509.625"
			gradientUnits="userSpaceOnUse">
			<stop offset="0.110656" stop-color="#C87030" />
			<stop offset="1" stop-color="#2D314D" />
		</linearGradient>
	</defs>
</svg>