<svg width="778" height="606" viewBox="0 0 778 606" fill="none" xmlns="http://www.w3.org/2000/svg">
	<path
		d="M542.372 532.802C518.888 517.872 535.501 481.767 562.003 490.137C575.584 494.426 589.783 485.898 592.341 471.915L593.285 466.758C599.589 432.303 650.508 437.946 649.559 472.995L647.69 541.985C647.011 567.074 619.323 581.727 598.096 568.232L542.372 532.802Z"
		fill="#2D314D" />
	<path fill="#c97031"
		d="M372.5,279.5Q319,319,279.5,338.5Q240,358,155,384Q70,410,119,325Q168,240,139,175Q110,110,175,101.5Q240,93,281,125.5Q322,158,374,199Q426,240,372.5,279.5Z" />
	<defs>
		<linearGradient id="paint0_linear_6_27" x1="233.963" y1="245.405" x2="523.197" y2="509.625"
			gradientUnits="userSpaceOnUse">
			<stop offset="0.110656" stop-color="#C87030" />
			<stop offset="1" stop-color="#2D314D" />
		</linearGradient>
	</defs>
</svg>

<svg id="10015.io" viewBox="0 0 480 480" xmlns="http://www.w3.org/2000/svg" xmlns:xlink="http://www.w3.org/1999/xlink">

</svg>