<?xml version="1.0" standalone="no"?>
<svg viewBox="0 0 200 200" xmlns="http://www.w3.org/2000/svg">
	<path fill="#c97031"
		d="M11,-16.8C15,-16.7,19.7,-15.4,32.2,-12.4C44.7,-9.4,65,-4.7,62.9,-1.2C60.8,2.3,36.4,4.6,27.7,14.1C18.9,23.5,25.8,40.1,23.8,48.4C21.8,56.7,10.9,56.6,-0.6,57.7C-12.2,58.8,-24.4,61.1,-29.9,54.9C-35.4,48.6,-34.2,33.8,-32.6,23.2C-31,12.7,-29,6.3,-31.3,-1.3C-33.6,-9,-40.2,-18,-41.2,-27.6C-42.2,-37.1,-37.7,-47.2,-29.8,-45.2C-22,-43.1,-11,-29,-3.8,-22.4C3.5,-15.9,6.9,-16.9,11,-16.8Z"
		transform="translate(100 100)" />
</svg>